<?xml version="1.0" encoding="UTF-8"?>
<!DOCTYPE svg PUBLIC "-//W3C//DTD SVG 1.1//EN" "http://www.w3.org/Graphics/SVG/1.1/DTD/svg11.dtd">
<!-- Creator: CorelDRAW X6 -->
<svg xmlns="http://www.w3.org/2000/svg" xml:space="preserve" width="210mm" height="297mm" version="1.1" style="shape-rendering:geometricPrecision; text-rendering:geometricPrecision; image-rendering:optimizeQuality; fill-rule:evenodd; clip-rule:evenodd"
viewBox="0 0 2100 2970"
 xmlns:xlink="http://www.w3.org/1999/xlink">
 <defs>
  <style type="text/css">
   <![CDATA[
    .fil0 {fill:#EF7F1A;fill-rule:nonzero}
   ]]>
  </style>
 </defs>
 <g id="Layer_x0020_1">
  <metadata id="CorelCorpID_0Corel-Layer"/>
  <path class="fil0" d="M1354 1339l0 0c-134,-108 -315,-130 -469,-68 -7,2 -14,4 -20,8l-2 1c-33,15 -65,35 -95,58l0 0c-32,21 -41,63 -21,96 13,21 35,34 60,34 13,0 26,-4 37,-11l95 -58c16,-10 27,-25 32,-44 4,-18 1,-37 -9,-53 -5,-8 -11,-15 -18,-20 77,-21 159,-21 236,0 -8,5 -14,12 -19,21 -20,33 -10,77 24,97l95 58c11,7 24,10 37,10 25,0 47,-13 60,-34 20,-33 10,-75 -22,-96z"/>
  <path class="fil0" d="M1240 1455c-2,-6 -8,-11 -14,-11 -52,0 -95,-43 -95,-95 0,-8 -7,-15 -15,-15l-110 0c-8,0 -15,7 -15,15 0,52 -43,95 -95,95 -7,0 -12,4 -14,11l-61 213c-1,4 0,9 2,13 3,4 7,6 12,6l452 0c5,0 9,-2 12,-6 3,-4 4,-9 2,-13l-61 -213z"/>
 </g>
</svg>
